<svg xmlns="http://www.w3.org/2000/svg" viewBox="0 0 320 290" role="img" aria-label="J'MTD">
  <!-- J cursive -->
  <text x="6" y="148"
    font-family="'Dancing Script', Georgia, cursive"
    font-weight="700"
    font-size="148"
    fill="#D4197A"
    letter-spacing="-4">J&apos;</text>

  <!-- m stylisé avec cœur — deux arches -->
  <g transform="translate(94, 32)" fill="#D4197A">
    <!-- Arche gauche (hump 1) -->
    <path d="M4,105 L4,38 C4,12 16,0 34,0 C52,0 64,12 64,36 L64,38"/>
    <!-- Arche droite (hump 2) -->
    <path d="M64,38 C64,12 76,0 94,0 C112,0 124,12 124,38 L124,105"/>
    <!-- Remplissage arches -->
    <path d="M4,38 C4,10 18,-2 34,0 C50,2 60,14 64,36 C68,14 78,2 94,0 C110,-2 124,10 124,38 L124,105 L114,105 L114,44 C114,20 104,10 94,10 C84,10 74,20 74,44 L74,105 L54,105 L54,44 C54,20 44,10 34,10 C24,10 14,20 14,44 L14,105 Z"/>
    <!-- Cœur au centre des deux arches -->
    <path d="M64,52 C64,44 68,38 74,38 C80,38 84,44 84,50 C84,56 78,63 64,74 C50,63 44,56 44,50 C44,44 48,38 54,38 C60,38 64,44 64,52 Z"/>
  </g>

  <!-- TD teal -->
  <text x="108" y="262"
    font-family="Arial, Helvetica, sans-serif"
    font-weight="900"
    font-size="158"
    fill="#0DA9A4"
    letter-spacing="-5">TD</text>

  <!-- Tagline -->
  <text x="6" y="287"
    font-family="'Dancing Script', Georgia, cursive"
    font-size="19"
    fill="#D4197A"
    letter-spacing="0.3">Société de services sur mesure</text>
</svg>
